PathFileType	4	(X/Y/Z)	C:/Users/opensim2020/Desktop/walking_exp_matlab/subject01_walking10_straight_02.trc	
DataRate	CameraRate	NumFrames	NumMarkers	Units	OrigDataRate	OrigDataStartFrame	OrigNumFrames	
100.00	100.00	6	43	mm	100.00	2248	262	
Frame#	Time	LFHD			RFHD			LBHD			RBHD			C7			T10			CLAV			STRN			RBAK			LSHO			LUPA			LELB			LFRM			LWRA			LWRB			LFIN			RSHO			RUPA			RELB			RFRM			RWRA			RWRB			RFIN			LASI			RASI			LPSI			RPSI			LTHI			LKNE			LTIB			LANK			LHEE			LTOE			RTHI			RKNE			RTIB			RANK			RHEE			RTOE			*39			*40			*41			*42			
		X1	Y1	Z1	X2	Y2	Z2	X3	Y3	Z3	X4	Y4	Z4	X5	Y5	Z5	X6	Y6	Z6	X7	Y7	Z7	X8	Y8	Z8	X9	Y9	Z9	X10	Y10	Z10	X11	Y11	Z11	X12	Y12	Z12	X13	Y13	Z13	X14	Y14	Z14	X15	Y15	Z15	X16	Y16	Z16	X17	Y17	Z17	X18	Y18	Z18	X19	Y19	Z19	X20	Y20	Z20	X21	Y21	Z21	X22	Y22	Z22	X23	Y23	Z23	X24	Y24	Z24	X25	Y25	Z25	X26	Y26	Z26	X27	Y27	Z27	X28	Y28	Z28	X29	Y29	Z29	X30	Y30	Z30	X31	Y31	Z31	X32	Y32	Z32	X33	Y33	Z33	X34	Y34	Z34	X35	Y35	Z35	X36	Y36	Z36	X37	Y37	Z37	X38	Y38	Z38	X39	Y39	Z39	X40	Y40	Z40	X41	Y41	Z41	X42	Y42	Z42	X43	Y43	Z43	

230	2.290	-984.75055	-703.54596	1646.29529	-1087.59521	-752.72314	1649.91602	-1033.23572	-589.58026	1622.95618	-1142.41113	-639.23486	1627.14624	-1067.58997	-538.09753	1420.17712	-1071.64478	-510.63800	1122.77173	-1064.68884	-680.75226	1350.40686	-1062.81580	-727.65784	1198.31873	-1143.45764	-485.57883	1221.33997	-903.60681	-615.32965	1377.76575	-824.92139	-580.46600	1190.04333	-832.18146	-565.51587	1040.52124	-809.07813	-598.18054	931.23785	-828.39056	-672.55524	813.75635	-805.85022	-616.74396	810.08936	-796.75580	-662.95978	739.10229	-1216.74500	-618.25525	1377.18530	-1322.42346	-579.79321	1173.90088	-1327.41040	-593.66614	1049.03589	-1355.02893	-645.01019	938.52991	-1329.54224	-746.58948	840.54156	-1370.59766	-705.78485	832.49780	-1366.19067	-756.97076	763.75891	-974.57867	-699.22839	919.39954	-1192.52905	-678.59747	915.69019	-1005.19220	-507.59033	932.67004	-1149.80298	-494.91144	939.44751	-915.96838	-728.98022	599.25507	-936.38251	-749.53259	470.25049	-928.63995	-746.80457	282.03284	-979.71869	-775.30328	65.86552	-1034.82642	-735.34814	33.81813	-977.87982	-921.98828	41.18422	-1231.92651	-561.43384	592.21246	-1205.06274	-534.13586	432.64703	-1202.60938	-420.83972	295.81104	-1147.44250	-322.67737	113.24864	-1094.31665	-266.17319	96.43969	-1141.44873	-442.94061	33.14571	-1067.66516	-740.90942	1685.17200	-3103.22485	1972.73975	1024.64734	-3138.70361	2012.95471	1022.00928			 
231	2.300	-982.39697	-710.35229	1646.67249	-1085.22974	-759.62457	1650.40662	-1030.98022	-596.49976	1623.20605	-1140.13550	-646.23669	1627.49634	-1065.64990	-545.02698	1420.25769	-1070.45435	-518.75140	1122.75696	-1062.73669	-688.12970	1350.64624	-1060.93896	-735.62695	1198.91382	-1141.53223	-493.44336	1221.15356	-901.59631	-622.29156	1377.57178	-823.33478	-588.45624	1189.71167	-830.66504	-573.98755	1040.04944	-807.63562	-606.89026	930.95105	-827.03052	-681.24573	813.51886	-804.10345	-625.61029	809.72418	-795.44995	-671.50806	739.01624	-1214.87073	-625.59668	1377.55920	-1320.50928	-586.67157	1174.30798	-1325.59534	-600.24329	1049.49939	-1353.42419	-650.74896	938.70587	-1328.21777	-751.57440	839.91650	-1369.31555	-710.49713	832.03339	-1365.05334	-761.29974	763.15698	-973.19855	-707.96179	920.10809	-1191.04688	-687.59235	915.60767	-1004.24091	-516.14276	933.30652	-1148.87280	-503.96982	939.40411	-914.99225	-736.51727	600.04596	-935.77240	-757.74646	471.35992	-926.21936	-753.36462	282.31760	-979.46521	-776.86530	65.65054	-1034.37964	-736.39587	34.49549	-977.73608	-923.45007	39.09326	-1231.37573	-570.63470	592.06775	-1204.90662	-543.09863	432.50043	-1202.49585	-426.66855	298.15100	-1148.26013	-325.53958	116.59870	-1094.94641	-269.30991	101.32407	-1141.67285	-443.36984	33.10577	-1065.21948	-747.86389	1685.67786	-3102.57495	1972.90991	1024.08875	-3138.30811	2013.12024	1022.11530			 
232	2.310	-980.04004	-717.33923	1646.94165	-1082.81982	-766.58075	1651.03821	-1028.76392	-603.48303	1623.48633	-1137.85083	-653.26581	1628.02734	-1063.88013	-552.19757	1420.49072	-1069.24744	-526.88068	1122.83020	-1060.75281	-696.05493	1351.32605	-1059.14050	-743.65491	1199.63208	-1139.69690	-501.39703	1221.16272	-899.67627	-629.39801	1377.65369	-821.85083	-596.56281	1189.49414	-828.87036	-582.17700	1040.23193	-806.06940	-615.71448	930.96204	-825.69244	-690.04059	813.52911	-802.53082	-634.59064	809.74054	-794.03137	-680.70276	738.89972	-1212.95483	-633.14056	1378.07971	-1318.26465	-593.48138	1174.86511	-1323.74792	-606.77649	1050.22095	-1351.65198	-656.45685	939.12238	-1326.89246	-756.37537	839.36499	-1367.96741	-715.21716	831.88837	-1363.88062	-765.49091	762.49188	-971.66028	-716.49609	921.05902	-1189.37964	-696.65210	915.68341	-1003.39691	-524.48169	934.03290	-1148.11108	-512.93616	939.55396	-914.08282	-745.06195	601.12531	-935.26923	-766.14929	471.90372	-924.04816	-758.61707	282.16425	-979.33002	-778.64978	65.73032	-1033.82959	-737.27429	34.95041	-977.52472	-924.81824	37.40271	-1230.23975	-580.62872	592.29767	-1204.80383	-552.81879	432.33997	-1202.40649	-433.17673	300.54501	-1149.35913	-328.48425	120.85245	-1095.82373	-272.21555	107.03689	-1141.72986	-444.28369	33.12282	-1062.78381	-754.72412	1686.13513	-3102.21045	1973.09607	1024.03748						 
233	2.320	-977.67407	-724.29712	1647.44153	-1080.38013	-773.61987	1651.74023	-1026.49121	-610.51123	1623.82336	-1135.50183	-660.35834	1628.62085	-1061.43774	-559.95160	1420.57434	-1068.12439	-534.88538	1123.07886	-1058.77917	-703.35065	1351.92859	-1057.21704	-751.51593	1200.40942	-1138.05933	-509.27808	1221.40637	-897.75250	-636.53992	1377.90393	-820.20569	-604.39154	1189.54346	-827.26776	-590.76660	1040.15515	-804.52356	-624.53040	931.17218	-824.30475	-698.98126	813.79272	-801.23792	-643.43250	810.00952	-792.47900	-689.77026	739.37885	-1211.07825	-640.60034	1378.79114	-1316.21570	-600.32733	1175.59973	-1321.79248	-613.41748	1051.02271	-1349.98889	-661.99384	939.60309	-1325.50281	-761.08459	838.93903	-1366.40479	-719.90265	832.10809	-1362.73792	-769.31274	762.07587	-969.93317	-724.83875	922.16431	-1187.59753	-705.67108	915.92828	-1002.70221	-532.79974	934.91217	-1147.36206	-522.00983	939.83582	-913.35913	-754.20789	602.31586	-934.76440	-774.06299	472.02957	-922.45166	-763.25824	281.96072	-979.08289	-779.49786	65.54648	-1033.55725	-737.78088	35.32419	-977.69434	-926.21167	35.97419	-1229.24329	-591.26007	591.94830	-1204.86353	-563.46094	432.19232	-1202.36719	-440.49329	303.19971	-1150.19946	-332.48422	125.29218	-1096.45422	-276.03958	113.32727	-1142.14795	-444.19348	32.77116	-1060.31726	-761.69012	1686.86218	-3102.42798	1972.97217	1024.14209	-3138.44849	2013.06079	1022.09076			 
234	2.330	-975.23395	-731.35254	1647.90564	-1077.88635	-780.72083	1652.44958	-1024.20569	-617.62012	1624.31360	-1132.90906	-667.39014	1629.34534	-1060.15503	-566.91699	1421.20203	-1067.08826	-542.82153	1123.44812	-1056.77942	-710.91638	1352.69812	-1055.35681	-759.27979	1201.17358	-1136.64832	-517.13135	1221.77502	-895.83563	-643.64355	1378.31946	-818.49280	-612.12085	1189.84216	-825.70770	-599.77271	1040.47705	-802.95148	-633.51300	931.56683	-822.88043	-707.98694	814.28735	-799.69800	-652.51538	810.44543	-791.16888	-698.90295	739.59021	-1209.24561	-648.14105	1379.65784	-1313.95667	-607.06445	1176.46729	-1319.86377	-619.81580	1052.06543	-1348.27307	-667.46399	940.27979	-1324.05823	-765.62073	838.63232	-1365.10437	-724.21844	832.13885	-1361.48547	-773.05554	761.73859	-968.01147	-733.06158	923.38458	-1185.67432	-714.54785	916.31744	-1002.02893	-540.99512	935.79016	-1146.74158	-530.91107	940.22791	-912.78436	-763.54968	603.33478	-934.34497	-781.50873	471.83185	-921.41785	-767.74860	281.85352	-979.14142	-780.60370	65.57230	-1033.38757	-738.18329	35.57592	-977.97260	-927.37927	34.97372	-1228.52002	-602.20581	591.58459	-1205.38904	-575.00629	431.83499	-1202.50183	-448.78705	305.96323	-1151.10974	-336.89682	130.24974	-1097.05725	-280.98630	120.31662	-1142.31079	-445.05582	33.04733	-1057.70435	-768.67682	1687.52637	-3102.68823	1972.89001	1023.95404	-3138.77002	2013.03235	1022.01978			 
235	2.340	-972.78583	-738.23315	1648.41650	-1075.45056	-787.85229	1653.17188	-1021.98010	-624.71509	1624.77124	-1130.61292	-674.61493	1630.07080	-1058.19263	-574.47308	1421.62012	-1065.90710	-550.71008	1123.88708	-1054.83276	-718.32013	1353.28259	-1053.45837	-766.99335	1201.97327	-1135.40234	-524.98688	1222.34363	-893.87122	-650.63037	1378.91357	-817.02246	-620.13098	1190.14465	-823.86786	-608.05579	1040.84607	-801.33051	-642.49097	932.12122	-821.44318	-717.02478	814.86121	-798.19043	-661.66846	811.02802	-789.62842	-708.37445	740.14612	-1207.35364	-655.74567	1380.55530	-1311.88464	-613.46661	1177.62170	-1317.87268	-626.28998	1053.17139	-1346.41785	-672.91333	941.12585	-1322.63550	-770.04041	838.39282	-1363.41858	-728.56720	832.43652	-1360.22070	-776.61969	761.47711	-965.95660	-741.03296	924.51227	-1183.59143	-723.30255	916.91241	-1001.25897	-549.03656	936.56702	-1146.03723	-539.67773	940.67236	-912.35809	-772.38104	603.92792	-933.80737	-787.98334	471.95917	-920.99872	-772.63458	281.82935	-979.38068	-781.68909	65.63199	-1033.07556	-738.52509	35.77942	-978.16956	-928.29156	33.83947	-1228.48901	-613.68378	591.57733	-1206.23962	-587.39929	431.24673	-1202.99072	-457.96695	308.79922	-1151.67249	-342.27792	135.28903	-1097.22461	-287.01608	127.32109	-1142.29834	-445.98419	33.04309	-1055.16504	-775.76532	1688.16321	-3101.94971	1973.21216	1023.99646	-3138.33374	2013.10925	1022.11249			 
